<?xml version="1.0" encoding="utf-8"?>
<!-- Generator: Adobe Illustrator 18.0.0, SVG Export Plug-In . SVG Version: 6.00 Build 0)  -->
<!DOCTYPE svg PUBLIC "-//W3C//DTD SVG 1.1//EN" "http://www.w3.org/Graphics/SVG/1.1/DTD/svg11.dtd">
<svg version="1.1" id="Layer_1" xmlns="http://www.w3.org/2000/svg" xmlns:xlink="http://www.w3.org/1999/xlink" x="0px" y="0px"
	 viewBox="0 0 135 40" enable-background="new 0 0 135 40" xml:space="preserve">
<g>
	<path fill-rule="evenodd" clip-rule="evenodd" fill="#6C3BF9" d="M130.2,40H4.7C2.1,40,0,37.9,0,35.3V4.7C0,2.1,2.1,0,4.7,0h125.5
		c2.6,0,4.8,2.1,4.8,4.7v30.5C135,37.9,132.8,40,130.2,40z"/>
	<g>
		<g>
			<path fill-rule="evenodd" clip-rule="evenodd" fill="#FFFFFF" d="M29.8,19c0-3.2,2.6-4.8,2.8-4.8c-1.5-2.2-3.8-2.5-4.7-2.5
				c-2-0.2-3.9,1.2-4.9,1.2c-1,0-2.6-1.1-4.2-1.1c-2.1,0-4.1,1.3-5.2,3.2c-2.3,3.9-0.6,9.6,1.6,12.8c1.1,1.5,2.3,3.3,4,3.2
				c1.6-0.1,2.2-1,4.2-1c1.9,0,2.5,1,4.2,1c1.7,0,2.8-1.5,3.9-3.1c1.3-1.8,1.8-3.5,1.8-3.6C33.2,24.1,29.8,22.8,29.8,19z M26.6,9.6
				c0.9-1.1,1.5-2.6,1.3-4.1c-1.3,0.1-2.8,0.9-3.7,1.9c-0.8,0.9-1.5,2.5-1.3,3.9C24.2,11.4,25.7,10.6,26.6,9.6z M46.3,17.4L42,30.6
				h2.2l1.2-3.9h4.3l1.2,3.9h2.3l-4.3-13.2H46.3z M45.8,25.1l1.1-3.5c0.3-1.1,0.5-1.9,0.6-2.5h0c0.3,1.3,0.6,2.1,0.7,2.5l1.1,3.5
				H45.8z M60.2,20.9c-1.4,0-2.5,0.6-3.2,1.7h0l-0.1-1.5H55c0.1,1.1,0.1,2.1,0.1,3.1v10.3h2.1v-5h0c0.6,0.9,1.5,1.4,2.7,1.4
				c1.2,0,2.1-0.4,2.9-1.3c0.9-0.9,1.3-2.2,1.3-3.8c0-1.5-0.4-2.6-1.1-3.5C62.3,21.3,61.4,20.9,60.2,20.9z M61.4,28.2
				c-0.4,0.6-1.1,0.9-1.9,0.9c-0.7,0-1.2-0.2-1.7-0.7c-0.4-0.5-0.6-1.1-0.6-1.8v-1.6c0-0.2,0-0.4,0.1-0.6c0.1-0.6,0.4-1,0.8-1.4
				c0.4-0.3,0.9-0.5,1.4-0.5c0.8,0,1.4,0.3,1.8,0.9c0.4,0.6,0.6,1.4,0.6,2.3C62,26.8,61.8,27.6,61.4,28.2z M71.2,20.9
				c-1.4,0-2.5,0.6-3.2,1.7h0l-0.1-1.5H66c0.1,1.1,0.1,2.1,0.1,3.1v10.3h2.1v-5h0c0.6,0.9,1.5,1.4,2.7,1.4c1.2,0,2.1-0.4,2.9-1.3
				c0.9-0.9,1.3-2.2,1.3-3.8c0-1.5-0.4-2.6-1.1-3.5C73.3,21.3,72.4,20.9,71.2,20.9z M72.4,28.2c-0.4,0.6-1.1,0.9-1.9,0.9
				c-0.7,0-1.2-0.2-1.7-0.7c-0.4-0.5-0.6-1.1-0.6-1.8v-1.6c0-0.2,0-0.4,0.1-0.6c0.1-0.6,0.4-1,0.8-1.4c0.4-0.3,0.9-0.5,1.4-0.5
				c0.8,0,1.4,0.3,1.8,0.9c0.4,0.6,0.6,1.4,0.6,2.3C73,26.8,72.8,27.6,72.4,28.2z M84.2,23c-0.9-0.4-1.6-0.7-1.9-1
				c-0.4-0.3-0.6-0.8-0.6-1.3c0-0.5,0.2-0.9,0.5-1.2c0.4-0.4,1-0.5,1.8-0.5c0.9,0,1.8,0.2,2.5,0.6l0.5-1.7c-0.8-0.4-1.8-0.6-3-0.6
				c-1.4,0-2.4,0.3-3.2,1c-0.8,0.7-1.2,1.6-1.2,2.7c0,1.7,1.2,2.9,3.5,3.8c0.9,0.3,1.5,0.7,1.8,1c0.4,0.4,0.6,0.8,0.6,1.4
				c0,0.6-0.2,1.1-0.7,1.4c-0.4,0.4-1.1,0.5-1.9,0.5c-1.1,0-2.1-0.3-3.1-0.8L79.3,30c0.9,0.5,2,0.8,3.4,0.8c1.5,0,2.7-0.4,3.6-1.2
				c0.8-0.7,1.2-1.6,1.2-2.7c0-0.9-0.3-1.7-0.8-2.3C86.2,24,85.3,23.5,84.2,23z M92.2,18.7l-2.1,0.6v1.7h-1.4v1.6h1.4v4.8
				c0,1.2,0.2,2.1,0.7,2.6c0.5,0.5,1.1,0.8,2,0.8c0.7,0,1.2-0.1,1.7-0.2L94.4,29c-0.2,0.1-0.6,0.1-0.9,0.1c-0.8,0-1.2-0.6-1.2-1.8
				v-4.6h2.3v-1.6h-2.3V18.7z M100.5,20.9c-1.5,0-2.6,0.5-3.5,1.4c-0.9,0.9-1.3,2.2-1.3,3.6c0,1.4,0.4,2.6,1.2,3.5
				c0.8,0.9,2,1.4,3.4,1.4c1.5,0,2.6-0.5,3.5-1.5c0.8-0.9,1.3-2.1,1.3-3.6c0-1.4-0.4-2.6-1.2-3.5C103,21.4,101.9,20.9,100.5,20.9z
				 M102.3,28.1c-0.5,0.8-1.1,1.2-1.9,1.2c-0.8,0-1.5-0.4-1.9-1.1c-0.4-0.6-0.6-1.4-0.6-2.3c0-0.9,0.2-1.7,0.6-2.3
				c0.4-0.8,1.1-1.1,1.9-1.1c0.8,0,1.5,0.4,1.9,1.1c0.4,0.6,0.6,1.4,0.6,2.3C102.9,26.7,102.7,27.5,102.3,28.1z M109.9,21.4
				c-0.5,0.4-0.8,0.9-1.1,1.5h-0.1l-0.1-1.8h-1.9c0.1,0.9,0.1,1.9,0.1,3l0,6.5h2.1v-5c0-0.8,0.2-1.4,0.5-1.9c0.4-0.6,1-0.8,1.7-0.8
				c0.2,0,0.5,0,0.7,0.1v-2c-0.2,0-0.3,0-0.5,0C110.9,20.9,110.4,21.1,109.9,21.4z M121.5,25.4c0-1.2-0.3-2.2-0.8-3
				c-0.7-1-1.8-1.5-3.1-1.5c-1.4,0-2.5,0.5-3.3,1.5c-0.8,1-1.2,2.2-1.2,3.6c0,1.5,0.4,2.6,1.3,3.5c0.8,0.9,2,1.3,3.5,1.3
				c1.2,0,2.3-0.2,3.2-0.6l-0.3-1.5c-0.8,0.3-1.6,0.5-2.6,0.5c-0.9,0-1.5-0.2-2.1-0.7c-0.6-0.5-0.9-1.2-0.9-2.2h6.4
				C121.5,26.1,121.5,25.8,121.5,25.4z M115,24.9c0.1-0.6,0.3-1.2,0.6-1.6c0.4-0.6,1-0.9,1.7-0.9c0.8,0,1.3,0.3,1.7,0.9
				c0.3,0.5,0.4,1,0.4,1.6H115z M47.6,11.9c0.7-0.6,1.1-1.5,1.1-2.6c0-1-0.3-1.8-1-2.4c-0.6-0.5-1.4-0.7-2.6-0.7
				c-0.6,0-1.2,0-1.8,0.1v6.4c0.4,0.1,0.9,0.1,1.5,0.1C46,12.7,46.9,12.5,47.6,11.9z M44.3,7c0.2,0,0.5-0.1,0.8-0.1
				c0.8,0,1.4,0.2,1.8,0.6c0.4,0.4,0.6,1,0.6,1.7c0,0.8-0.2,1.5-0.7,1.9c-0.4,0.4-1.1,0.7-1.9,0.7c-0.3,0-0.6,0-0.7,0V7z M52.2,7.9
				c-0.7,0-1.3,0.2-1.7,0.7c-0.4,0.5-0.6,1.1-0.6,1.8c0,0.7,0.2,1.3,0.6,1.7c0.4,0.5,1,0.7,1.6,0.7c0.7,0,1.3-0.2,1.7-0.7
				c0.4-0.5,0.6-1.1,0.6-1.8c0-0.7-0.2-1.3-0.6-1.7C53.5,8.1,52.9,7.9,52.2,7.9z M53.1,11.4c-0.2,0.4-0.5,0.6-0.9,0.6
				c-0.4,0-0.7-0.2-0.9-0.6c-0.2-0.3-0.3-0.7-0.3-1.1c0-0.4,0.1-0.8,0.3-1.1c0.2-0.4,0.5-0.6,1-0.6c0.4,0,0.7,0.2,0.9,0.6
				c0.2,0.3,0.3,0.7,0.3,1.1S53.3,11.1,53.1,11.4z M62.3,8L62.3,8L62.3,8L62.3,8z M57.9,12.7l0.6-2c0.2-0.5,0.3-1,0.4-1.5h0
				c0.1,0.5,0.2,1,0.4,1.5l0.6,2h1L62.3,8h-1l-0.6,2.2c-0.1,0.5-0.2,1.1-0.3,1.5h0c-0.1-0.5-0.2-1-0.4-1.5L59.4,8h-0.9l-0.7,2.2
				c-0.2,0.6-0.3,1.1-0.4,1.5h0c-0.1-0.5-0.2-1-0.3-1.5L56.6,8h-1.1l1.4,4.7H57.9z M66.7,10v2.7h1V9.9c0-0.7-0.2-1.2-0.5-1.6
				c-0.3-0.3-0.7-0.4-1.1-0.4c-0.3,0-0.7,0.1-0.9,0.3c-0.2,0.2-0.4,0.3-0.5,0.6h0l0-0.7h-0.9c0,0.5,0,0.9,0,1.3v3.3h1V9.9
				c0-0.3,0.1-0.6,0.3-0.8c0.2-0.2,0.4-0.3,0.8-0.3C66.4,8.7,66.7,9.2,66.7,10z M70.6,5.8h-1v6.8h1V5.8z M74.5,7.9
				c-0.7,0-1.3,0.2-1.7,0.7c-0.4,0.5-0.6,1.1-0.6,1.8c0,0.7,0.2,1.3,0.6,1.7c0.4,0.5,1,0.7,1.6,0.7c0.7,0,1.3-0.2,1.7-0.7
				c0.4-0.5,0.6-1.1,0.6-1.8c0-0.7-0.2-1.3-0.6-1.7C75.7,8.1,75.2,7.9,74.5,7.9z M75.4,11.4c-0.2,0.4-0.5,0.6-0.9,0.6
				c-0.4,0-0.7-0.2-0.9-0.6c-0.2-0.3-0.3-0.7-0.3-1.1c0-0.4,0.1-0.8,0.3-1.1c0.2-0.4,0.5-0.6,1-0.6c0.4,0,0.7,0.2,0.9,0.6
				c0.2,0.3,0.3,0.7,0.3,1.1S75.6,11.1,75.4,11.4z M80.8,12.1L80.8,12.1l0.1,0.5h0.9c0-0.3-0.1-0.6-0.1-1.1V9.8
				c0-1.3-0.6-1.9-1.8-1.9c-0.6,0-1.2,0.1-1.6,0.4L78.5,9c0.4-0.2,0.8-0.3,1.2-0.3c0.7,0,1,0.3,1,0.9v0.1c-0.9,0-1.5,0.1-2,0.4
				c-0.5,0.3-0.7,0.7-0.7,1.3c0,0.4,0.1,0.7,0.4,1c0.3,0.3,0.6,0.4,1.1,0.4C80,12.8,80.4,12.6,80.8,12.1z M79,11.3
				c0-0.6,0.6-1,1.7-0.9v0.7c0,0.1,0,0.1,0,0.2c0,0.2-0.2,0.4-0.4,0.6c-0.2,0.1-0.4,0.2-0.6,0.2c-0.2,0-0.4-0.1-0.5-0.2
				C79.1,11.7,79,11.5,79,11.3z M87.7,5.8h-1v2.7h0c-0.3-0.4-0.7-0.6-1.3-0.6c-0.6,0-1.1,0.2-1.5,0.7c-0.4,0.5-0.6,1.1-0.6,1.8
				c0,0.7,0.2,1.3,0.6,1.7c0.4,0.4,0.8,0.7,1.4,0.7c0.7,0,1.2-0.3,1.5-0.9h0l0,0.8h0.9c0-0.4,0-0.8,0-1.3V5.8z M86.7,10.7
				c0,0.3-0.1,0.6-0.3,0.9c-0.2,0.3-0.5,0.4-0.8,0.4c-0.4,0-0.7-0.2-0.9-0.5c-0.2-0.3-0.3-0.7-0.3-1.1c0-0.5,0.1-0.9,0.3-1.2
				c0.2-0.3,0.5-0.5,0.9-0.5c0.3,0,0.5,0.1,0.7,0.3c0.2,0.2,0.3,0.4,0.4,0.6c0,0.1,0,0.2,0,0.3V10.7z M94.3,12.8
				c0.7,0,1.3-0.2,1.7-0.7c0.4-0.5,0.6-1.1,0.6-1.8c0-0.7-0.2-1.3-0.6-1.7c-0.4-0.5-1-0.7-1.7-0.7c-0.7,0-1.3,0.2-1.7,0.7
				c-0.4,0.5-0.6,1.1-0.6,1.8c0,0.7,0.2,1.3,0.6,1.7C93.1,12.5,93.6,12.8,94.3,12.8z M93.4,9.2c0.2-0.4,0.5-0.6,1-0.6
				c0.4,0,0.7,0.2,0.9,0.6c0.2,0.3,0.3,0.7,0.3,1.1s-0.1,0.8-0.3,1.1c-0.2,0.4-0.5,0.6-0.9,0.6c-0.4,0-0.7-0.2-0.9-0.6
				c-0.2-0.3-0.3-0.7-0.3-1.1C93.1,9.9,93.2,9.5,93.4,9.2z M98.2,12.7h1V9.9c0-0.3,0.1-0.6,0.3-0.8c0.2-0.2,0.4-0.3,0.8-0.3
				c0.6,0,0.9,0.4,0.9,1.2v2.7h1V9.9c0-0.7-0.2-1.2-0.5-1.6c-0.3-0.3-0.7-0.4-1.1-0.4c-0.3,0-0.7,0.1-0.9,0.3
				c-0.2,0.2-0.4,0.3-0.5,0.6h0l0-0.7h-0.9c0,0.5,0,0.9,0,1.3V12.7z M107.1,11.1c0,0.6,0.1,1,0.3,1.3c0.2,0.3,0.6,0.4,1,0.4
				c0.3,0,0.6,0,0.8-0.1l0-0.8c-0.1,0-0.3,0-0.5,0c-0.4,0-0.6-0.3-0.6-0.9V8.8h1.1V8h-1.2V6.8l-1,0.3V8h-0.7v0.8h0.7V11.1z
				 M113.8,10v2.7h1V9.9c0-0.7-0.2-1.2-0.5-1.6c-0.3-0.3-0.6-0.4-1.1-0.4c-0.6,0-1.1,0.3-1.4,0.8h0V5.8h-1v6.8h1V9.9
				c0-0.1,0-0.3,0-0.4c0.2-0.5,0.5-0.7,1-0.7C113.5,8.7,113.8,9.2,113.8,10z M118.7,12.8c0.6,0,1.1-0.1,1.6-0.3l-0.2-0.7
				c-0.4,0.1-0.8,0.2-1.3,0.2c-0.4,0-0.8-0.1-1-0.3c-0.3-0.2-0.4-0.6-0.5-1.1h3.1c0-0.1,0-0.3,0-0.5c0-0.6-0.1-1.1-0.4-1.5
				c-0.3-0.5-0.9-0.8-1.5-0.8c-0.7,0-1.2,0.3-1.6,0.8c-0.4,0.5-0.6,1.1-0.6,1.8c0,0.7,0.2,1.3,0.6,1.7
				C117.4,12.5,118,12.8,118.7,12.8z M117.7,9c0.2-0.3,0.5-0.4,0.8-0.4c0.4,0,0.6,0.1,0.8,0.4c0.1,0.2,0.2,0.5,0.2,0.8h-2.2
				C117.4,9.5,117.5,9.3,117.7,9z"/>
		</g>
	</g>
</g>
</svg>
