<?xml version="1.0" encoding="utf-8"?>
<!-- Generator: Adobe Illustrator 18.0.0, SVG Export Plug-In . SVG Version: 6.00 Build 0)  -->
<!DOCTYPE svg PUBLIC "-//W3C//DTD SVG 1.1//EN" "http://www.w3.org/Graphics/SVG/1.1/DTD/svg11.dtd">
<svg version="1.1" id="Layer_1" xmlns="http://www.w3.org/2000/svg" xmlns:xlink="http://www.w3.org/1999/xlink" x="0px" y="0px"
	 viewBox="0 0 1024 1024" enable-background="new 0 0 1024 1024" xml:space="preserve">
<g>
	<g>
		<path fill="#FFFFFF" d="M491.3,423.7c-6.7-4.3-14.6-7.3-23.9-9c-9.2-1.8-18.8-2.6-28.8-2.6c-4.3,0-8.9,0.1-14.1,0.3
			c-5.1,0.2-10.4,0.5-15.9,0.9c-5.5,0.4-11,0.9-16.5,1.6c-5.5,0.7-9.5,1.3-9.5,1.3c-3.3,0.5-6.6,3.6-7.4,6.8l-41.8,183.2
			c-0.7,3.3,1.4,5.9,4.7,5.9h29.5c3.3,0,6.7-2.7,7.5-5.9l15.6-64.8c0.8-3.3,4.1-5.4,7.4-4.8l9.1,1.6c3.3,0.6,7.1,3.6,8.4,6.7
			l26,61.6c1.3,3.1,5.1,5.6,8.5,5.6h31.8c3.3,0,5-2.5,3.6-5.6l-32.1-71c-1.4-3.1,0-6.6,3.1-7.9c0,0,19.8-8.4,28.5-17.2
			c10.4-10.5,17.5-24.1,21.2-40.8c2.5-11.3,2.3-20.7-0.6-28.1C502.8,433.8,498,427.9,491.3,423.7z M461.2,475.6
			c-2.6,11.7-7.9,20-15.9,25.1c-8,5.1-23.3,6.9-23.3,6.9c-3.3,0.4-8.8,0.7-12.1,0.7h-5.5c-3.3,0-5.5-2.7-4.8-5.9l10.4-47.3
			c0.7-3.3,3.8-6.4,6.9-6.9c0,0,0,0,4.2-0.2c4.2-0.2,8.4-0.3,12.7-0.3c10.9,0,18.7,2.5,23.3,7.4C461.8,460,463.1,466.8,461.2,475.6z
			 M639.2,527.5c0,0,19.8-8.4,28.5-17.2c10.4-10.5,17.5-24.1,21.2-40.8c2.5-11.3,2.3-20.7-0.6-28.1c-2.9-7.5-7.7-13.4-14.4-17.6
			c-6.7-4.3-14.6-7.3-23.9-9c-9.2-1.8-18.8-2.6-28.8-2.6c-4.3,0-8.9,0.1-14.1,0.3c-5.1,0.2-10.4,0.5-15.9,0.9
			c-5.5,0.4-11,0.9-16.5,1.6c-5.5,0.7-9.5,1.3-9.5,1.3c-3.3,0.5-6.6,3.6-7.4,6.8l-41.8,183.2c-0.7,3.3,1.4,5.9,4.7,5.9h29.5
			c3.3,0,6.7-2.7,7.5-5.9l15.6-64.8c0.8-3.3,4.1-5.4,7.4-4.8l9.1,1.6c3.3,0.6,7.1,3.6,8.4,6.7l26,61.6c1.3,3.1,5.1,5.6,8.5,5.6h31.8
			c3.3,0,5-2.5,3.6-5.6l-32.1-71C634.7,532.4,636.1,528.8,639.2,527.5z M627.8,500.7c-8,5.1-23.3,6.9-23.3,6.9
			c-3.3,0.4-8.8,0.7-12.1,0.7h-5.5c-3.3,0-5.5-2.7-4.8-5.9l10.4-47.3c0.7-3.3,3.8-6.4,6.9-6.9c0,0,0,0,4.2-0.2
			c4.2-0.2,8.4-0.3,12.7-0.3c10.9,0,18.7,2.5,23.3,7.4c4.6,5,5.9,11.8,4,20.6C641.1,487.3,635.8,495.6,627.8,500.7z"/>
	</g>
</g>
<g>
	<g opacity="0.5">
		<g>
			<path fill="#FFFFFF" d="M460,858.5c-124.5,0-215.9-18.2-279.5-55.5c-77.4-45.5-115-118.8-115-223.9c0-224.3,173.3-400,394.5-400
				c110,0,234.1,43.4,332,116.1c107.4,79.8,166.6,180.6,166.6,283.8c0,101.1-56.4,176.5-167.7,224.2
				C684.3,848.9,552.1,858.5,460,858.5z M460,190.1c-215.1,0-383.5,170.9-383.5,389c0,100.9,35.9,171,109.6,214.4
				c61.8,36.4,151.4,54,273.9,54c91.1,0,221.8-9.4,326.6-54.3c106.9-45.8,161-117.8,161-214.1c0-99.7-57.6-197.3-162.2-275
				C689.3,232.7,567.7,190.1,460,190.1z"/>
			<path fill="#FFFFFF" d="M460,864c-125.5,0-217.8-18.4-282.2-56.3C98.5,761.1,60,686.3,60,579.1c0-227.3,175.7-405.4,400-405.4
				c111.1,0,236.5,43.8,335.3,117.2C904.1,371.8,964,474.1,964,579.1c0,103.5-57.5,180.6-171,229.2C685.6,854.4,552.6,864,460,864z
				 M462.4,853.1c-0.8,0-1.6,0-2.4,0C460.8,853.1,461.6,853.1,462.4,853.1z M71,579.1c0,103,36.7,174.7,112.3,219.2
				c37.5,22,84.9,37.3,143.4,46c-58.5-8.7-105.9-24-143.4-46C107.7,753.8,71,682.1,71,579.1z M460,195.6c-212,0-378,168.5-378,383.5
				c0,98.8,35,167.4,106.9,209.7c60.9,35.9,149.6,53.3,271.1,53.3c90.6,0,220.5-9.4,324.4-53.9C889,743.3,942.1,673,942.1,579.1
				c0-97.9-56.8-194-159.9-270.6C687,237.8,566.5,195.6,460,195.6z M953,579.1c0,63.6-23,116.8-68.5,159.1
				C930.1,695.9,953,642.7,953,579.1z M460,184.6c-218.1,0-389,173.3-389,394.5C71,357.9,241.8,184.6,460,184.6z M728.7,260.6
				c20.8,11.8,40.9,24.9,60,39.1c47.8,35.5,85.9,75.2,113.4,117.4c-27.4-42.2-65.6-81.9-113.4-117.4
				C769.6,285.5,749.5,272.5,728.7,260.6z"/>
		</g>
	</g>
	<g opacity="0.5">
		<g>
			<path fill="#FFFFFF" d="M419.1,962c-63.3,0-124-28.5-180.2-84.8C162.7,801,120.1,701.3,119.1,596.4
				c-1-105.4,40.1-205.2,115.9-280.9c96.2-96.2,250.6-158.4,393.4-158.4c100.3,0,184,30.7,242,88.7c71.5,71.5,84.9,164.7,40,277.1
				c-43,107.6-129.8,207.9-194.9,273C602,909.2,507.9,962,419.1,962z M628.4,168c-140,0-291.3,60.9-385.6,155.2
				c-73.7,73.7-113.7,170.6-112.7,273.1c1,102,42.4,199,116.6,273.2c54.9,54.9,111.3,81.6,172.5,81.6c85.7,0,177.3-51.8,288.5-163
				c64.4-64.4,150.1-163.5,192.5-269.3c43.2-107.9,30.6-197.2-37.5-265.3C806.7,197.6,725.7,168,628.4,168z"/>
			<path fill="#FFFFFF" d="M419.1,967.5c-64.8,0-126.8-29.1-184.1-86.4c-77.2-77.2-120.3-178.3-121.4-284.6
				c-1-106.9,40.7-208,117.5-284.8c97.2-97.2,253.1-160,397.2-160c101.8,0,186.8,31.2,245.9,90.3c73.2,73.2,87,168.4,41.2,283
				C872,633.3,784.8,734.2,719.3,799.7C604.8,914.2,509.4,967.5,419.1,967.5z M628.4,173.5c-138.6,0-288.4,60.3-381.7,153.6
				C174,399.7,134.6,495.3,135.5,596.2c1,100.5,41.8,196.2,114.9,269.4c53.8,53.8,109,80,168.6,80c84.1,0,174.5-51.3,284.6-161.4
				C767.8,720.1,853,621.7,895,516.7c42.3-105.7,30.1-193-36.3-259.4C803.9,202.5,724.2,173.5,628.4,173.5z M158.5,751.6
				c14.4,32.1,33.1,62.5,55.9,90.4C191.6,814.1,172.9,783.7,158.5,751.6z M929.5,426.1c-2.9,29.8-11,61.3-24.3,94.6
				c-37.8,94.4-109.6,183.3-170.5,247.4c60.9-64.1,132.7-153,170.5-247.4C918.5,487.5,926.6,455.9,929.5,426.1z M162,427.4
				c-14.1,29.5-24.4,60.7-30.6,92.9C137.6,488.1,147.9,457,162,427.4z M628.4,162.5c-96.3,0-198,28.6-283.2,76.9
				C430.3,191.1,532,162.5,628.4,162.5c64.1,0,121.3,12.7,169.1,37.1C749.6,175.2,692.5,162.5,628.4,162.5z"/>
		</g>
	</g>
	<g opacity="0.5">
		<g>
			<path fill="#FFFFFF" d="M585.7,911.8c-104,0-202.4-41.2-277.1-115.9C230.8,718.1,173.8,599.6,156,479
				c-19.5-132.4,9.9-245.5,82.9-318.5C282.5,116.8,335,94.7,395,94.7c150.8,0,311.6,138.3,394,220.8c88,88,139.8,165.5,158.3,236.9
				c22.5,86.9-2.6,165.3-77,239.6C793.1,869.2,692,911.8,585.7,911.8z M395,105.7c-56.9,0-106.8,21.1-148.3,62.6
				c-70.5,70.5-98.8,180.3-79.8,309.1c17.5,118.4,73.4,234.5,149.5,310.7c72.7,72.7,168.3,112.7,269.4,112.7
				c103.4,0,201.7-41.4,276.9-116.6c71.3-71.3,95.6-146.3,74.1-229.1c-18-69.4-68.9-145.3-155.5-231.9
				C700,242,541.8,105.7,395,105.7z"/>
			<path fill="#FFFFFF" d="M585.7,917.2c-105.4,0-205.2-41.7-281-117.5c-78.6-78.6-136.2-198.2-154.2-320
				c-19.8-134.1,10.2-248.9,84.4-323.1c44.7-44.7,98.5-67.4,160-67.4c152.7,0,314.9,139.3,397.9,222.4
				c88.8,88.8,141,167.1,159.8,239.4c23.1,89-2.6,169.1-78.4,244.9C796,874.1,693.5,917.2,585.7,917.2z M392.1,853.7
				c58.5,34.3,124.8,52.6,193.6,52.6C516.9,906.3,450.6,888,392.1,853.7z M395,111.1c-55.4,0-104,20.5-144.5,61
				c-69.2,69.2-97,177.3-78.3,304.5c17.3,117.3,72.6,232.3,148,307.6c71.6,71.6,165.9,111.1,265.5,111.1c101.9,0,198.9-40.8,273-115
				c69.9-69.9,93.6-143.1,72.7-223.9c-17.7-68.4-68.1-143.5-154-229.4C696.7,246.4,539.8,111.1,395,111.1z M208.4,637.5
				c19.2,42.6,43.1,82.2,70.4,116.6C251.4,719.7,227.6,680.1,208.4,637.5z M841.3,379.8c29,34,52,66.4,69.2,97.4
				C893.3,446.1,870.3,413.8,841.3,379.8z M197.4,224.6c-27.2,48.9-41.5,108.1-41.9,174.2C155.9,332.7,170.2,273.6,197.4,224.6z
				 M395,100.2c116.1,0,238.7,83.6,325.8,159.2C633.6,183.7,511,100.2,395,100.2c-41,0-78.5,10.7-111.9,31.8
				C316.5,110.8,353.9,100.2,395,100.2z"/>
		</g>
	</g>
	<g opacity="0.5">
		<g>
			<path fill="#FFFFFF" d="M564,858.5c-110,0-234.1-43.4-332-116.1C124.6,662.6,65.5,561.8,65.5,458.6
				c0-101.1,56.4-176.5,167.7-224.2c106.5-45.6,238.7-55.2,330.9-55.2c124.5,0,215.9,18.2,279.5,55.5c77.4,45.5,115,118.8,115,223.9
				C958.5,682.9,785.2,858.5,564,858.5z M564,190.1c-91.1,0-221.8,9.4-326.6,54.3c-106.9,45.8-161,117.8-161,214.1
				c0,99.7,57.6,197.3,162.2,275c96.1,71.4,217.7,114,325.5,114c215.1,0,383.5-170.9,383.5-389c0-100.9-35.9-171-109.6-214.4
				C776.1,207.8,686.5,190.1,564,190.1z"/>
			<path fill="#FFFFFF" d="M564,864c-111.1,0-236.5-43.8-335.3-117.2C119.9,665.9,60,563.6,60,458.6c0-103.5,57.5-180.6,171-229.2
				c107.4-46,240.4-55.7,333-55.7c125.5,0,217.8,18.4,282.2,56.3C925.5,276.6,964,351.4,964,458.6C964,685.9,788.3,864,564,864z
				 M564,195.6c-90.6,0-220.5,9.4-324.4,53.9C135,294.4,81.9,364.7,81.9,458.6c0,97.9,56.8,194,159.9,270.6
				C337,799.9,457.5,842.1,564,842.1c212,0,378-168.5,378-383.5c0-98.8-35-167.4-106.9-209.7C774.2,213,685.5,195.6,564,195.6z
				 M71,462.8c0.7,45.2,13,89.9,35.9,132.5C84,552.7,71.7,508,71,462.8z M168.8,275.8C103.8,321.3,71,382.5,71,458.6
				C71,382.5,103.8,321.3,168.8,275.8z M575.6,184.7c2.5,0,4.9,0.1,7.4,0.1C580.5,184.8,578.1,184.7,575.6,184.7z M570.7,184.7
				c1.5,0,3,0,4.4,0C573.7,184.7,572.2,184.7,570.7,184.7z M564,184.6c2.2,0,4.3,0,6.5,0C568.4,184.6,566.2,184.6,564,184.6z"/>
		</g>
	</g>
	<g>
		<g>
			<path fill="#FFFFFF" d="M395.6,897.1c-104.8,0-192.5-32.3-253.6-93.5c-75.5-75.5-90.5-177.4-43.6-294.8
				C142.5,398.6,230.7,296.5,297,230.2c116.7-116.7,214.5-171,307.9-171c67.8,0,132.4,30.2,191.9,89.6
				c165.1,165.1,166.8,422.1,3.9,585C701.5,833,542.5,897.1,395.6,897.1z M604.9,103.1c-79.9,0-170.5,51.7-276.9,158.2
				C264.6,324.6,180.4,421.8,139.1,525C98.6,626.3,110,709.6,173,772.6c66.6,66.6,157.8,80.6,222.6,80.6c133.8,0,284-60.4,374-150.4
				c145.5-145.6,143.8-375.3-3.9-523C714.1,128.2,661.5,103.1,604.9,103.1z"/>
			<path fill="#FFFFFF" d="M395.6,899.8c-105.5,0-193.9-32.6-255.6-94.3c-76.3-76.3-91.6-179.3-44.2-297.8
				c44.2-110.6,132.7-213,199.2-279.5C412.3,111.1,510.7,56.5,604.9,56.5c68.6,0,133.8,30.4,193.8,90.4
				c166.2,166.2,167.9,424.8,3.9,588.9C702.9,835.4,543.2,899.8,395.6,899.8z M604.9,62c-92.6,0-189.8,54.1-306,170.2
				C232.9,298.2,144.9,400,101,509.8C54.5,626.1,69.3,727,144,801.7c60.6,60.6,147.7,92.7,251.7,92.7c146.2,0,304.4-63.7,403-162.4
				c161.8-161.8,160.1-417.1-3.9-581.1C735.9,91.9,672,62,604.9,62z M395.6,856c-65.3,0-157.2-14.1-224.6-81.4
				c-63.8-63.8-75.4-148.1-34.5-250.5C178.1,420.3,262.5,322.8,326,259.3c107-107,198.2-159,278.8-159c57.3,0,110.6,25.4,162.8,77.6
				c148.8,148.8,150.5,380.2,3.9,526.9C681.1,795.2,530.1,856,395.6,856z M604.9,105.8c-79.1,0-169.1,51.5-275,157.4
				c-63.2,63.2-147.1,160.1-188.2,262.9c-40.1,100.2-28.9,182.4,33.3,244.6c66,66,156.4,79.8,220.7,79.8
				c133.1,0,282.6-60.1,372-149.6c144.5-144.5,142.8-372.5-3.9-519.1C712.7,130.7,660.7,105.8,604.9,105.8z"/>
		</g>
	</g>
</g>
</svg>
