<?xml version="1.0" encoding="utf-8"?>
<!-- Generator: Adobe Illustrator 18.1.0, SVG Export Plug-In . SVG Version: 6.00 Build 0)  -->
<!DOCTYPE svg PUBLIC "-//W3C//DTD SVG 1.1//EN" "http://www.w3.org/Graphics/SVG/1.1/DTD/svg11.dtd">
<svg version="1.1" id="Layer_1" xmlns="http://www.w3.org/2000/svg" xmlns:xlink="http://www.w3.org/1999/xlink" x="0px" y="0px"
	 viewBox="0 0 357.4 200.1" enable-background="new 0 0 357.4 200.1" xml:space="preserve">
<g>
	<g>
		<path fill="#FFFFFF" d="M158,11.6c-6.7-4.3-14.6-7.3-23.9-9C124.9,0.8,115.3,0,105.3,0c-4.3,0-8.9,0.1-14.1,0.3
			c-5.1,0.2-10.4,0.5-15.9,0.9s-11,0.9-16.5,1.6s-9.5,1.3-9.5,1.3c-3.3,0.5-6.6,3.6-7.4,6.8L0.1,194.1c-0.7,3.3,1.4,5.9,4.7,5.9
			h29.5c3.3,0,6.7-2.7,7.5-5.9l15.6-64.8c0.8-3.3,4.1-5.4,7.4-4.8l9.1,1.6c3.3,0.6,7.1,3.6,8.4,6.7l26,61.6c1.3,3.1,5.1,5.6,8.5,5.6
			h31.8c3.3,0,5-2.5,3.6-5.6l-32.1-71c-1.4-3.1,0-6.6,3.1-7.9c0,0,19.8-8.4,28.5-17.2c10.4-10.5,17.5-24.1,21.2-40.8
			c2.5-11.3,2.3-20.7-0.6-28.1C169.5,21.7,164.7,15.8,158,11.6z M127.9,63.5c-2.6,11.7-7.9,20-15.9,25.1s-23.3,6.9-23.3,6.9
			c-3.3,0.4-8.8,0.7-12.1,0.7h-5.5c-3.3,0-5.5-2.7-4.8-5.9L76.7,43c0.7-3.3,3.8-6.4,6.9-6.9c0,0,0,0,4.2-0.2s8.4-0.3,12.7-0.3
			c10.9,0,18.7,2.5,23.3,7.4C128.5,47.9,129.8,54.7,127.9,63.5z M305.9,115.4c0,0,19.8-8.4,28.5-17.2c10.4-10.5,17.5-24.1,21.2-40.8
			c2.5-11.3,2.3-20.7-0.6-28.1c-2.9-7.5-7.7-13.4-14.4-17.6c-6.7-4.3-14.6-7.3-23.9-9c-9.2-1.8-18.8-2.6-28.8-2.6
			c-4.3,0-8.9,0.1-14.1,0.3c-5.1,0.2-10.4,0.5-15.9,0.9s-11,0.9-16.5,1.6s-9.5,1.3-9.5,1.3c-3.3,0.5-6.6,3.6-7.4,6.8l-41.8,183.2
			c-0.7,3.3,1.4,5.9,4.7,5.9h29.5c3.3,0,6.7-2.7,7.5-5.9l15.6-64.8c0.8-3.3,4.1-5.4,7.4-4.8l9.1,1.6c3.3,0.6,7.1,3.6,8.4,6.7
			l26,61.6c1.3,3.1,5.1,5.6,8.5,5.6h31.8c3.3,0,5-2.5,3.6-5.6l-32.1-71C301.4,120.3,302.8,116.7,305.9,115.4z M294.5,88.6
			c-8,5.1-23.3,6.9-23.3,6.9c-3.3,0.4-8.8,0.7-12.1,0.7h-5.5c-3.3,0-5.5-2.7-4.8-5.9L259.2,43c0.7-3.3,3.8-6.4,6.9-6.9
			c0,0,0,0,4.2-0.2s8.4-0.3,12.7-0.3c10.9,0,18.7,2.5,23.3,7.4c4.6,5,5.9,11.8,4,20.6C307.8,75.2,302.5,83.5,294.5,88.6z"/>
	</g>
</g>
</svg>
